<svg width="16" height="16" viewBox="0 0 16 16" fill="none" xmlns="http://www.w3.org/2000/svg">
<g clip-path="url(#clip0)">
<path d="M15.5962 15.2V15.1994H15.6V9.62478C15.6 6.89764 15.0129 4.79688 11.8247 4.79688C10.292 4.79688 9.2635 5.63794 8.8436 6.43531H8.79927V5.05148H5.77637V15.1994H8.92403V10.1745C8.92403 8.85148 9.17483 7.57214 10.8133 7.57214C12.4276 7.57214 12.4517 9.08201 12.4517 10.2594V15.2H15.5962Z" fill="#F7F7F7"/>
<path d="M0.650635 5.052H3.8021V15.1999H0.650635V5.052Z" fill="#F7F7F7"/>
<path d="M2.22517 0C1.21754 0 0.399902 0.817633 0.399902 1.82527C0.399902 2.8329 1.21754 3.66763 2.22517 3.66763C3.2328 3.66763 4.05044 2.8329 4.05044 1.82527C4.0498 0.817633 3.23217 0 2.22517 0V0Z" fill="#F7F7F7"/>
</g>
<defs>
<clipPath id="clip0">
<rect width="15.2" height="15.2" fill="white" transform="translate(0.399902)"/>
</clipPath>
</defs>
</svg>
