<svg width="13" height="13" viewBox="0 0 13 13" fill="none" xmlns="http://www.w3.org/2000/svg">
<path d="M11.544 9.04819C10.7013 8.3765 9.84619 7.96962 9.0139 8.64031L8.51691 9.04566C8.1533 9.3399 7.47723 10.7148 4.86332 7.9123C2.24995 5.11339 3.80512 4.6776 4.16929 4.38589L4.66899 3.98003C5.49693 3.30782 5.18448 2.46161 4.58734 1.59053L4.22699 1.06292C3.62713 0.193871 2.97392 -0.376868 2.1438 0.294322L1.69527 0.659595C1.32839 0.908691 0.302852 1.71838 0.0540895 3.25659C-0.245297 5.10223 0.69913 7.21574 2.86287 9.53472C5.0239 11.8547 7.13974 13.02 9.14399 12.9997C10.8097 12.983 11.8156 12.15 12.1302 11.8471L12.5804 11.4813C13.4083 10.8106 12.8939 10.1278 12.0508 9.45456L11.544 9.04819Z" fill="#0362D1"/>
</svg>
