<svg width="10" height="10" viewBox="0 0 10 10" fill="none" xmlns="http://www.w3.org/2000/svg">
<path d="M8.87998 6.96015C8.2318 6.44346 7.57399 6.13048 6.93376 6.64639L6.55147 6.9582C6.27177 7.18454 5.75171 8.24212 3.74101 6.08638C1.73073 3.93338 2.92702 3.59815 3.20714 3.37376L3.59153 3.06156C4.2284 2.54448 3.98806 1.89355 3.52872 1.22349L3.25153 0.817629C2.7901 0.149132 2.28763 -0.289898 1.64908 0.226401L1.30405 0.507381C1.02183 0.698993 0.232963 1.32183 0.0416073 2.50507C-0.18869 3.92479 0.537793 5.55057 2.20221 7.3344C3.86454 9.11901 5.49211 10.0154 7.03384 9.9998C8.31513 9.98692 9.08893 9.34613 9.33095 9.11315L9.67723 8.83178C10.3141 8.31587 9.91841 7.7906 9.26981 7.27274L8.87998 6.96015Z" fill="#F7F7F7"/>
</svg>
