<svg width="93" height="93" viewBox="0 0 93 93" fill="none" xmlns="http://www.w3.org/2000/svg">
<g clip-path="url(#clip0)">
<path d="M71.4428 49.4239C61.4689 49.4239 53.0574 56.2326 50.6074 65.4458L40.7555 59.0423C42.2626 56.1006 43.114 52.7693 43.114 49.2437C43.114 46.0721 42.4251 43.0587 41.1898 40.3447L53.3199 33.7624C57.1613 39.7125 63.8494 43.6589 71.4428 43.6589C83.3296 43.6589 92.9998 33.9887 92.9998 22.1019C92.9998 10.2158 83.3296 0.544922 71.4428 0.544922C59.5567 0.544922 49.8858 10.2151 49.8858 22.1019C49.8858 24.442 50.2626 26.6962 50.9551 28.8077L38.2956 35.6767C34.3399 30.8058 28.3061 27.6867 21.557 27.6867C9.67022 27.6867 0 37.3569 0 49.2437C0 61.1298 9.67022 70.8 21.557 70.8C27.9506 70.8 33.7021 68.0009 37.6535 63.5649L49.8929 71.5209C50.181 83.1586 59.7369 92.5379 71.4428 92.5379C83.3296 92.5379 92.9998 82.867 92.9998 70.9809C92.9998 59.0941 83.3296 49.4239 71.4428 49.4239ZM61.1113 27.9428C61.1113 24.1851 63.1278 20.8908 66.1348 19.0829C65.4444 18.0611 65.0407 16.8301 65.0407 15.5068C65.0407 11.9769 67.9129 9.10472 71.4428 9.10472C74.9727 9.10472 77.8449 11.9769 77.8449 15.5068C77.8449 16.8301 77.4412 18.0611 76.7508 19.0829C79.7578 20.8908 81.7743 24.1851 81.7743 27.9428V29.85C81.7743 31.3642 80.5468 32.5917 79.0327 32.5917H63.8529C62.3388 32.5917 61.1113 31.3642 61.1113 29.85V27.9428ZM11.0524 57.1926V55.2421C11.0524 51.3716 13.1583 47.9857 16.2823 46.1636C15.6345 45.1738 15.2564 43.9924 15.2564 42.7231C15.2564 39.2492 18.0824 36.4224 21.557 36.4224C25.0309 36.4224 27.8577 39.2492 27.8577 42.7231C27.8577 43.9924 27.4788 45.1738 26.831 46.1636C29.9557 47.9857 32.0609 51.3716 32.0609 55.2421V57.1926C32.0609 58.7067 30.8334 59.9342 29.3193 59.9342H13.794C12.2799 59.9342 11.0524 58.7067 11.0524 57.1926ZM61.1113 78.729V76.8218C61.1113 73.0996 63.0902 69.8322 66.0504 68.0129C65.4125 67.0175 65.0407 65.8361 65.0407 64.5689C65.0407 61.0389 67.9129 58.1667 71.4428 58.1667C74.9727 58.1667 77.8449 61.0389 77.8449 64.5689C77.8449 65.8361 77.4731 67.0175 76.8353 68.0129C79.7954 69.8322 81.7743 73.0996 81.7743 76.8218V78.729C81.7743 80.2431 80.5468 81.4706 79.0327 81.4706H63.8529C62.3388 81.4706 61.1113 80.2431 61.1113 78.729Z" fill="#0362D1"/>
</g>
<defs>
<clipPath id="clip0">
<rect width="93" height="93" fill="white"/>
</clipPath>
</defs>
</svg>
