<svg width="291" height="778" viewBox="0 0 291 778" fill="none" xmlns="http://www.w3.org/2000/svg">
<mask id="mask0" style="mask-type:alpha" maskUnits="userSpaceOnUse" x="0" y="19" width="291" height="534">
<path d="M0 29C0 23.4772 4.47715 19 10 19H291V553H10C4.47716 553 0 548.523 0 543V29Z" fill="#0362D1"/>
</mask>
<g mask="url(#mask0)">
<path d="M884.92 27.6247C1113.42 233.322 1341.27 1225.78 1019.25 1117.03C697.229 1008.27 836.767 1715.8 626.694 1541.43C416.621 1367.05 600.478 694.543 128.394 411.945C-343.69 129.347 656.424 -178.073 884.92 27.6247Z" fill="#F3F8FF"/>
</g>
<path opacity="0.04" d="M183.201 691.361L188.833 714.719C186.072 715.492 183.753 717.424 181.876 720.517C179.888 723.609 178.894 727.143 178.894 731.119C178.894 735.315 179.888 738.849 181.876 741.721C183.864 744.592 186.404 746.028 189.496 746.028C193.361 746.028 196.619 742.604 199.27 735.757C200.043 733.769 201.755 728.302 204.405 719.357C206.393 712.399 208.712 706.712 211.363 702.294C216.333 692.576 225.057 687.44 237.537 686.888C248.36 686.888 256.974 690.753 263.38 698.484C269.785 706.215 272.988 716.209 272.988 728.468C272.988 739.622 270.337 749.286 265.036 757.458C259.735 765.41 252.943 770.545 244.66 772.865L238.862 749.175C242.396 748.292 245.323 745.973 247.642 742.218C249.961 738.352 251.121 733.769 251.121 728.468C251.121 723.388 250.072 719.136 247.973 715.712C245.765 712.178 243.004 710.411 239.691 710.411C236.93 709.749 234.113 711.847 231.242 716.706C230.8 717.59 230.138 719.081 229.254 721.179C228.371 723.498 227.874 724.934 227.763 725.486L226.272 730.125L223.29 739.899L219.812 748.678C218.486 752.102 216.94 754.973 215.173 757.293C208.436 766.349 200.43 770.49 191.153 769.717C181.103 769.717 172.93 766.183 166.635 759.115C160.34 751.936 157.193 742.715 157.193 731.45C157.193 721.4 159.678 712.731 164.647 705.442C169.396 698.042 175.581 693.349 183.201 691.361ZM215.173 682.036L196.454 682.036L196.454 671.765L182.041 671.765L182.041 650.395L196.454 650.395L196.454 633.001L215.173 633.001L215.173 650.395L243.004 650.395C245.213 650.395 247.09 649.622 248.636 648.076C250.072 646.53 250.79 644.597 250.79 642.278L250.79 633.001L271 633.001L271 645.757C271 652.935 268.736 659.12 264.208 664.31C259.68 669.28 254.048 671.765 247.311 671.765L215.173 671.765L215.173 682.036ZM194.466 590.229C194.466 582.498 196.785 575.651 201.423 569.687L196.454 569.687L196.454 548.317L271 548.317L271 569.687L265.865 569.687C270.503 575.651 272.822 582.498 272.822 590.229C272.822 600.279 269.123 608.672 261.723 615.409C254.324 622.146 244.992 625.514 233.727 625.514C222.462 625.514 213.13 622.146 205.731 615.409C198.221 608.562 194.466 600.168 194.466 590.229ZM233.561 603.15C238.641 603.15 242.949 601.549 246.483 598.346C249.906 595.143 251.618 591.223 251.618 586.584C251.618 581.946 249.906 578.025 246.483 574.823C242.949 571.62 238.641 570.019 233.561 570.019C228.591 570.019 224.395 571.62 220.971 574.823C217.437 578.025 215.67 581.946 215.67 586.584C215.67 591.223 217.437 595.143 220.971 598.346C224.395 601.549 228.591 603.15 233.561 603.15ZM196.454 514.139L204.24 514.139C197.724 509.279 194.466 502.487 194.466 493.763C194.466 492.437 194.521 491.609 194.631 491.278L217.492 491.278C216.167 493.487 215.504 496.082 215.504 499.064C215.504 503.371 216.94 506.96 219.812 509.831C222.683 512.703 226.327 514.139 230.745 514.139L271 514.139L271 535.674L196.454 535.674L196.454 514.139ZM215.173 488.067L196.454 488.067L196.454 477.796L182.041 477.796L182.041 456.426L196.454 456.426L196.454 439.032L215.173 439.032L215.173 456.426L243.004 456.426C245.213 456.426 247.09 455.653 248.636 454.107C250.072 452.561 250.79 450.628 250.79 448.309L250.79 439.032L271 439.032L271 451.788C271 458.966 268.736 465.151 264.208 470.341C259.68 475.311 254.048 477.796 247.311 477.796L215.173 477.796L215.173 488.067ZM215.173 395.208L196.454 395.208L196.454 384.937L182.041 384.937L182.041 363.567L196.454 363.567L196.454 346.173L215.173 346.173L215.173 363.567L243.004 363.567C245.212 363.567 247.09 362.794 248.636 361.248C250.072 359.701 250.79 357.769 250.79 355.45L250.79 346.173L271 346.173L271 358.928C271 366.107 268.736 372.291 264.208 377.482C259.68 382.452 254.048 384.937 247.311 384.937L215.173 384.937L215.173 395.208ZM261.723 327.421C254.213 334.931 244.881 338.686 233.727 338.686C222.573 338.686 213.24 334.931 205.731 327.421C198.221 319.69 194.466 310.192 194.466 298.928C194.466 287.663 198.221 278.165 205.731 270.434C213.24 262.814 222.573 259.004 233.727 259.004C244.881 259.004 254.213 262.814 261.723 270.434C269.123 277.944 272.822 287.442 272.822 298.928C272.822 310.413 269.123 319.911 261.723 327.421ZM251.618 298.928C251.618 293.958 249.906 289.816 246.483 286.503C243.059 283.08 238.807 281.368 233.727 281.368C228.647 281.368 224.395 283.08 220.971 286.503C217.437 289.816 215.67 293.958 215.67 298.928C215.67 303.787 217.437 307.928 220.971 311.352C224.395 314.665 228.647 316.322 233.727 316.322C238.807 316.322 243.059 314.665 246.483 311.352C249.906 307.928 251.618 303.787 251.618 298.928ZM194.466 215.718C194.466 207.987 196.785 201.14 201.423 195.176L150.898 195.176L150.898 173.806L271 173.806L271 195.176L265.865 195.176C270.503 201.14 272.822 207.987 272.822 215.718C272.822 225.768 269.123 234.161 261.723 240.898C254.324 247.635 244.992 251.003 233.727 251.003C222.462 251.003 213.13 247.635 205.731 240.898C198.221 234.051 194.466 225.657 194.466 215.718ZM233.561 228.639C238.641 228.639 242.948 227.038 246.483 223.835C249.906 220.632 251.618 216.712 251.618 212.073C251.618 207.435 249.906 203.514 246.483 200.312C242.948 197.109 238.641 195.508 233.561 195.508C228.591 195.508 224.395 197.109 220.971 200.312C217.437 203.514 215.67 207.435 215.67 212.073C215.67 216.712 217.437 220.633 220.971 223.835C224.395 227.038 228.591 228.639 233.561 228.639ZM194.466 128.197C194.466 120.467 196.785 113.619 201.423 107.656L196.454 107.656L196.454 86.2858L271 86.2858L271 107.656L265.865 107.656C270.503 113.619 272.822 120.467 272.822 128.197C272.822 138.247 269.123 146.641 261.723 153.377C254.324 160.114 244.992 163.483 233.727 163.483C222.462 163.483 213.13 160.114 205.731 153.377C198.221 146.53 194.466 138.137 194.466 128.197ZM233.561 141.119C238.641 141.119 242.948 139.517 246.483 136.315C249.906 133.112 251.618 129.191 251.618 124.553C251.618 119.914 249.906 115.994 246.483 112.791C242.948 109.588 238.641 107.987 233.561 107.987C228.591 107.987 224.395 109.588 220.971 112.791C217.437 115.994 215.67 119.914 215.67 124.553C215.67 129.191 217.437 133.112 220.971 136.315C224.395 139.517 228.591 141.119 233.561 141.119ZM274.644 52.2727L270.503 50.7818L196.454 78.9437L196.454 56.7455L242.341 40.511L196.454 23.6138L196.454 1.41561L281.768 34.3816C290.934 37.9157 297.616 42.6093 301.812 48.4626C306.12 54.3158 308.273 61.7705 308.273 70.8265L308.273 73.1457L287.731 73.1457L287.731 70.6608C287.731 61.4944 283.369 55.365 274.644 52.2727Z" fill="url(#paint0_linear)"/>
<defs>
<linearGradient id="paint0_linear" x1="146" y1="389" x2="298" y2="389" gradientUnits="userSpaceOnUse">
<stop stop-color="#1677E9"/>
<stop offset="1" stop-color="#0362D1"/>
</linearGradient>
</defs>
</svg>
