<svg width="943" height="260" viewBox="0 0 943 260" fill="none" xmlns="http://www.w3.org/2000/svg">
<path opacity="0.04" d="M138.44 44.6L98.96 54.12C97.6533 49.4533 94.3867 45.5333 89.16 42.36C83.9333 39 77.96 37.32 71.24 37.32C64.1467 37.32 58.1733 39 53.32 42.36C48.4667 45.72 46.04 50.0133 46.04 55.24C46.04 61.7733 51.8267 67.28 63.4 71.76C66.76 73.0667 76 75.96 91.12 80.44C102.88 83.8 112.493 87.72 119.96 92.2C136.387 100.6 145.067 115.347 146 136.44C146 154.733 139.467 169.293 126.4 180.12C113.333 190.947 96.44 196.36 75.72 196.36C56.8667 196.36 40.5333 191.88 26.72 182.92C13.28 173.96 4.6 162.48 0.68 148.48L40.72 138.68C42.2133 144.653 46.1333 149.6 52.48 153.52C59.0133 157.44 66.76 159.4 75.72 159.4C84.3067 159.4 91.4933 157.627 97.28 154.08C103.253 150.347 106.24 145.68 106.24 140.08C107.36 135.413 103.813 130.653 95.6 125.8C94.1067 125.053 91.5867 123.933 88.04 122.44C84.12 120.947 81.6933 120.107 80.76 119.92L72.92 117.4L56.4 112.36L41.56 106.48C35.7733 104.24 30.92 101.627 27 98.64C11.6933 87.2533 4.69333 73.72 6 58.04C6 41.0533 11.9733 27.24 23.92 16.6C36.0533 5.95999 51.64 0.63999 70.68 0.63999C87.6667 0.63999 102.32 4.83999 114.64 13.24C127.147 21.2667 135.08 31.72 138.44 44.6ZM154.201 98.64V67H171.561V42.64H207.681V67H237.081V98.64H207.681V145.68C207.681 149.413 208.988 152.587 211.601 155.2C214.214 157.627 217.481 158.84 221.401 158.84H237.081V193H215.521C203.388 193 192.934 189.173 184.161 181.52C175.761 173.867 171.561 164.347 171.561 152.96V98.64H154.201ZM290.056 67V80.16C298.269 69.1467 309.749 63.64 324.496 63.64C326.736 63.64 328.136 63.7333 328.696 63.92V102.56C324.962 100.32 320.576 99.2 315.536 99.2C308.256 99.2 302.189 101.627 297.336 106.48C292.482 111.333 290.056 117.493 290.056 124.96V193H253.656V67H290.056ZM395.782 63.64C408.849 63.64 420.422 67.56 430.502 75.4V67H466.622V193H430.502V184.32C420.422 192.16 408.849 196.08 395.782 196.08C378.795 196.08 364.609 189.827 353.222 177.32C341.835 164.813 336.142 149.04 336.142 130C336.142 110.96 341.835 95.1867 353.222 82.68C364.795 69.9867 378.982 63.64 395.782 63.64ZM373.942 129.72C373.942 138.307 376.649 145.587 382.062 151.56C387.475 157.347 394.102 160.24 401.942 160.24C409.782 160.24 416.409 157.347 421.822 151.56C427.235 145.587 429.942 138.307 429.942 129.72C429.942 121.32 427.235 114.227 421.822 108.44C416.409 102.467 409.782 99.48 401.942 99.48C394.102 99.48 387.475 102.467 382.062 108.44C376.649 114.227 373.942 121.32 373.942 129.72ZM479.592 98.64V67H496.952V42.64H533.072V67H562.472V98.64H533.072V145.68C533.072 149.413 534.378 152.587 536.992 155.2C539.605 157.627 542.872 158.84 546.792 158.84H562.472V193H540.912C528.778 193 518.325 189.173 509.552 181.52C501.152 173.867 496.952 164.347 496.952 152.96V98.64H479.592ZM707.286 143.16H613.486C615.54 149.88 619.366 155.293 624.966 159.4C630.566 163.32 637.006 165.28 644.286 165.28C654.366 165.28 662.673 161.453 669.206 153.8L704.206 161.92C698.606 172.56 690.393 180.96 679.566 187.12C668.926 193.093 656.98 196.08 643.726 196.08C624.126 196.08 607.793 189.827 594.726 177.32C581.66 164.813 575.126 149.04 575.126 130C575.126 111.147 581.473 95.3733 594.166 82.68C607.233 69.9867 623.1 63.64 641.766 63.64C660.62 63.64 676.393 69.9867 689.086 82.68C701.966 95.3733 708.406 111.147 708.406 130C708.406 135.6 708.033 139.987 707.286 143.16ZM613.486 116H671.446C669.393 109.653 665.66 104.52 660.246 100.6C654.833 96.68 648.766 94.72 642.046 94.72C635.7 94.72 629.82 96.68 624.406 100.6C619.18 104.52 615.54 109.653 613.486 116ZM779.962 196.08C762.975 196.08 748.788 189.827 737.402 177.32C726.015 164.813 720.322 149.04 720.322 130C720.322 110.96 726.015 95.1867 737.402 82.68C748.975 69.9867 763.162 63.64 779.962 63.64C793.028 63.64 804.602 67.56 814.682 75.4V67H850.802V197.76C850.802 215.493 844.642 230.053 832.322 241.44C820.375 253.2 805.162 259.08 786.682 259.08C772.122 259.08 759.055 255.347 747.482 247.88C735.908 240.227 728.162 230.707 724.242 219.32L760.082 210.92C762.135 215.027 765.495 218.387 770.162 221C775.015 223.613 780.242 224.92 785.842 224.92C794.055 224.92 800.868 222.307 806.282 217.08C811.882 212.04 814.682 205.787 814.682 198.32V184.32C804.602 192.16 793.028 196.08 779.962 196.08ZM758.122 130.28C758.122 138.68 760.828 145.773 766.242 151.56C771.655 157.347 778.282 160.24 786.122 160.24C793.962 160.24 800.588 157.347 806.002 151.56C811.415 145.773 814.122 138.68 814.122 130.28C814.122 121.693 811.415 114.413 806.002 108.44C800.588 102.467 793.962 99.48 786.122 99.48C778.282 99.48 771.655 102.467 766.242 108.44C760.828 114.413 758.122 121.693 758.122 130.28ZM908.291 199.16L910.811 192.16L863.211 67H900.731L928.171 144.56L956.731 67H994.251L938.531 211.2C932.558 226.693 924.625 237.987 914.731 245.08C904.838 252.36 892.238 256 876.931 256H873.011V221.28H877.211C892.705 221.28 903.065 213.907 908.291 199.16Z" fill="url(#paint0_linear)"/>
<defs>
<linearGradient id="paint0_linear" x1="494.5" y1="-18" x2="494.5" y2="262" gradientUnits="userSpaceOnUse">
<stop stop-color="#1677E9"/>
<stop offset="1" stop-color="#0362D1"/>
</linearGradient>
</defs>
</svg>
