<svg width="862" height="242" viewBox="0 0 862 242" fill="none" xmlns="http://www.w3.org/2000/svg">
<path opacity="0.04" d="M57.4485 35.3156L0.556854 35.3156L0.556854 0.386856L151.915 0.386856V35.3156L95.0234 35.3156L95.0234 179L57.4485 179L57.4485 35.3156ZM181.322 59.9246L181.322 72.3613C189.084 61.9533 199.933 56.7492 213.869 56.7492C215.986 56.7492 217.309 56.8374 217.838 57.0138L217.838 93.5303C214.31 91.4134 210.165 90.355 205.402 90.355C198.522 90.355 192.789 92.6483 188.202 97.2349C183.615 101.821 181.322 107.643 181.322 114.699V179H146.922L146.922 59.9246H181.322ZM281.238 56.7492C293.586 56.7492 304.524 60.4538 314.05 67.8629V59.9246H348.185L348.185 179H314.05V170.797C304.524 178.206 293.586 181.911 281.238 181.911C265.185 181.911 251.778 176.001 241.017 164.182C230.256 152.362 224.876 137.456 224.876 119.462C224.876 101.469 230.256 86.5622 241.017 74.7428C251.954 62.7471 265.361 56.7492 281.238 56.7492ZM260.598 119.198C260.598 127.312 263.156 134.192 268.272 139.837C273.388 145.306 279.65 148.04 287.059 148.04C294.469 148.04 300.731 145.306 305.847 139.837C310.963 134.192 313.521 127.312 313.521 119.198C313.521 111.259 310.963 104.556 305.847 99.0872C300.731 93.4421 294.469 90.6196 287.059 90.6196C279.65 90.6196 273.388 93.4421 268.272 99.0872C263.156 104.556 260.598 111.259 260.598 119.198ZM402.78 179H368.38L368.38 59.9246L402.78 59.9246L402.78 179ZM385.58 42.7248C379.229 42.7248 374.113 40.7843 370.232 36.9033C366.351 33.0223 364.411 27.9065 364.411 21.5558C364.411 15.3815 366.351 10.3539 370.232 6.47293C374.29 2.41555 379.406 0.386856 385.58 0.386856C391.578 0.386856 396.605 2.41555 400.663 6.47293C404.72 10.5303 406.749 15.5579 406.749 21.5558C406.749 27.7301 404.72 32.8459 400.663 36.9033C396.782 40.7843 391.754 42.7248 385.58 42.7248ZM422.646 179L422.646 59.9246H457.046V71.8321C465.161 61.7769 476.01 56.7492 489.593 56.7492C502.294 56.7492 513.055 61.1594 521.876 69.9798C530.696 78.8002 535.106 89.6493 535.106 102.527V179H500.707L500.707 111.524C500.707 104.997 498.59 99.6164 494.356 95.3826C490.299 90.9724 485.183 88.7673 479.009 88.7673C472.834 88.7673 467.63 90.9724 463.396 95.3826C459.163 99.6164 457.046 104.997 457.046 111.524L457.046 179L422.646 179ZM589.61 179H555.211V59.9246L589.61 59.9246V179ZM572.41 42.7248C566.06 42.7248 560.944 40.7843 557.063 36.9033C553.182 33.0223 551.241 27.9065 551.241 21.5558C551.241 15.3815 553.182 10.3539 557.063 6.47293C561.12 2.41555 566.236 0.386856 572.41 0.386856C578.408 0.386856 583.436 2.41555 587.493 6.47293C591.551 10.5303 593.579 15.5579 593.579 21.5558C593.579 27.7301 591.551 32.8459 587.493 36.9033C583.612 40.7843 578.585 42.7248 572.41 42.7248ZM609.477 179V59.9246H643.876V71.8321C651.991 61.7769 662.84 56.7492 676.424 56.7492C689.125 56.7492 699.886 61.1594 708.706 69.9798C717.527 78.8002 721.937 89.6493 721.937 102.527V179H687.537V111.524C687.537 104.997 685.42 99.6164 681.187 95.3826C677.129 90.9724 672.013 88.7673 665.839 88.7673C659.665 88.7673 654.461 90.9724 650.227 95.3826C645.993 99.6164 643.876 104.997 643.876 111.524V179L609.477 179ZM794.699 181.911C778.646 181.911 765.239 176.001 754.478 164.182C743.717 152.362 738.337 137.456 738.337 119.462C738.337 101.469 743.717 86.5622 754.478 74.7428C765.415 62.7471 778.822 56.7492 794.699 56.7492C807.048 56.7492 817.985 60.4538 827.511 67.8629V59.9246L861.646 59.9246V183.498C861.646 200.257 855.824 214.017 844.181 224.778C832.891 235.892 818.514 241.448 801.05 241.448C787.29 241.448 774.941 237.92 764.004 230.864C753.067 223.631 745.746 214.634 742.041 203.874L775.912 195.935C777.852 199.816 781.027 202.991 785.438 205.461C790.024 207.931 794.964 209.166 800.256 209.166C808.018 209.166 814.457 206.696 819.573 201.757C824.865 196.994 827.511 191.084 827.511 184.028V170.797C817.985 178.206 807.048 181.911 794.699 181.911ZM774.059 119.727C774.059 127.665 776.617 134.369 781.733 139.837C786.849 145.306 793.111 148.04 800.52 148.04C807.93 148.04 814.192 145.306 819.308 139.837C824.424 134.369 826.982 127.665 826.982 119.727C826.982 111.612 824.424 104.732 819.308 99.0872C814.192 93.4421 807.93 90.6196 800.52 90.6196C793.111 90.6196 786.849 93.4421 781.733 99.0872C776.617 104.732 774.059 111.612 774.059 119.727Z" fill="url(#paint0_linear)"/>
<defs>
<linearGradient id="paint0_linear" x1="433.5" y1="-21" x2="433.5" y2="243.612" gradientUnits="userSpaceOnUse">
<stop stop-color="#1677E9"/>
<stop offset="1" stop-color="#0362D1"/>
</linearGradient>
</defs>
</svg>
