<svg width="71" height="63" viewBox="0 0 71 63" fill="none" xmlns="http://www.w3.org/2000/svg">
<rect width="70" height="63" transform="translate(0.162109)" fill="white"/>
<circle cx="43.1621" cy="27" r="27" fill="#F3F7FD"/>
<g clip-path="url(#clip0)">
<path d="M27.1621 9C24.1797 9 21.7621 11.4176 21.7621 14.4C21.7621 17.3824 24.1797 19.8 27.1621 19.8C30.1433 19.7971 32.5592 17.3811 32.5621 14.4C32.5621 11.4176 30.1445 9 27.1621 9ZM27.1621 18C25.1739 18 23.5621 16.3882 23.5621 14.4C23.5621 12.4118 25.1739 10.8 27.1621 10.8C29.1503 10.8 30.7621 12.4118 30.7621 14.4C30.7621 16.3882 29.1503 18 27.1621 18Z" fill="#0362D1"/>
<path d="M30.7621 20.7002H30.5497L30.3598 20.7947C28.3459 21.7974 25.9783 21.7974 23.9644 20.7947L23.7745 20.7002H23.5621C21.0781 20.7031 19.065 22.7162 19.0621 25.2002V30.6002C19.0621 32.0914 20.2709 33.3002 21.7621 33.3002H32.5621C34.0533 33.3002 35.2621 32.0914 35.2621 30.6002V25.2002C35.2592 22.7162 33.2461 20.7031 30.7621 20.7002ZM33.4621 30.6002C33.4621 31.0972 33.0591 31.5002 32.5621 31.5002H21.7621C21.2651 31.5002 20.8621 31.0972 20.8621 30.6002V25.2002C20.8623 23.7836 21.9573 22.608 23.3704 22.5074C25.7751 23.6234 28.5492 23.6234 30.9538 22.5074C32.3668 22.608 33.4619 23.7836 33.4621 25.2002V30.6002Z" fill="#0362D1"/>
<path d="M46.0621 38.7002C43.0797 38.7002 40.6621 41.1178 40.6621 44.1002C40.6621 47.0826 43.0797 49.5002 46.0621 49.5002C49.0445 49.5002 51.4621 47.0826 51.4621 44.1002C51.4592 41.1191 49.0432 38.7031 46.0621 38.7002ZM46.0621 47.7002C44.0739 47.7002 42.4621 46.0884 42.4621 44.1002C42.4621 42.112 44.0739 40.5002 46.0621 40.5002C48.0503 40.5002 49.6621 42.112 49.6621 44.1002C49.6621 46.0884 48.0503 47.7002 46.0621 47.7002Z" fill="#0362D1"/>
<path d="M49.6621 50.3999H49.4497L49.2598 50.4899C47.2459 51.4925 44.8783 51.4925 42.8644 50.4899L42.6745 50.3999H42.4621C39.9781 50.4028 37.965 52.4159 37.9621 54.8999V60.2999C37.9621 61.7911 39.1709 62.9999 40.6621 62.9999H51.4621C52.9533 62.9999 54.1621 61.7911 54.1621 60.2999V54.8999C54.1592 52.4159 52.1461 50.4028 49.6621 50.3999ZM52.3621 60.2999C52.3621 60.7969 51.9591 61.1999 51.4621 61.1999H40.6621C40.1651 61.1999 39.7621 60.7969 39.7621 60.2999V54.8999C39.7623 53.4833 40.8573 52.3077 42.2704 52.2071C44.6751 53.3231 47.4491 53.3231 49.8538 52.2071C51.2669 52.3077 52.3619 53.4833 52.3621 54.8999V60.2999Z" fill="#0362D1"/>
<path d="M8.26212 38.7002C5.27975 38.7002 2.86212 41.1178 2.86212 44.1002C2.86212 47.0826 5.27975 49.5002 8.26212 49.5002C11.2445 49.5002 13.6621 47.0826 13.6621 44.1002C13.6592 41.1191 11.2433 38.7031 8.26212 38.7002ZM8.26212 47.7002C6.27391 47.7002 4.66212 46.0884 4.66212 44.1002C4.66212 42.112 6.27391 40.5002 8.26212 40.5002C10.2503 40.5002 11.8621 42.112 11.8621 44.1002C11.8621 46.0884 10.2503 47.7002 8.26212 47.7002Z" fill="#0362D1"/>
<path d="M11.8621 50.3999H11.6497L11.4598 50.4899C9.44595 51.4925 7.07827 51.4925 5.06441 50.4899L4.87451 50.3999H4.66211C2.17811 50.4028 0.165034 52.4159 0.162109 54.8999V60.2999C0.162109 61.7911 1.37092 62.9999 2.86211 62.9999H13.6621C15.1533 62.9999 16.3621 61.7911 16.3621 60.2999V54.8999C16.3592 52.4159 14.3461 50.4028 11.8621 50.3999ZM14.5621 60.2999C14.5621 60.7969 14.1591 61.1999 13.6621 61.1999H2.86211C2.36508 61.1999 1.96211 60.7969 1.96211 60.2999V54.8999C1.96233 53.4833 3.0573 52.3077 4.47041 52.2071C6.8751 53.3231 9.64912 53.3231 12.0538 52.2071C13.4669 52.3077 14.5619 53.4833 14.5621 54.8999V60.2999Z" fill="#0362D1"/>
<path d="M36.0915 54.7062C36.091 54.7052 36.0906 54.7041 36.0901 54.703C35.8953 54.2457 35.3666 54.033 34.9094 54.2278C30.8454 55.9311 26.3319 56.2418 22.0727 55.1116L22.9151 54.8641C23.3923 54.7244 23.6659 54.2244 23.5262 53.7472C23.3865 53.27 22.8865 52.9964 22.4093 53.1361L18.8093 54.1918C18.7958 54.1918 18.7859 54.2071 18.7733 54.2116C18.69 54.2427 18.6117 54.2861 18.5411 54.3403C18.5098 54.3572 18.4798 54.3761 18.4511 54.397C18.3562 54.4817 18.2809 54.5861 18.2306 54.703C18.1818 54.8207 18.1585 54.9474 18.1622 55.0747C18.1842 55.1966 18.2142 55.3168 18.2522 55.4347C18.2576 55.4473 18.2522 55.4617 18.2621 55.4743L20.0621 58.9186C20.2923 59.3595 20.8362 59.5304 21.2771 59.3002C21.718 59.07 21.8889 58.5261 21.6587 58.0852L20.9261 56.6848C25.7652 58.1394 30.9606 57.8567 35.6132 55.8856C36.0709 55.692 36.2851 55.1639 36.0915 54.7062Z" fill="#0362D1"/>
<path d="M51.1984 32.6637C50.8469 32.3123 50.2772 32.3123 49.9258 32.6637L48.6523 33.9372C47.9071 26.0543 42.9023 19.2136 35.6149 16.1172C35.1576 15.9223 34.6289 16.1351 34.4341 16.5924C34.2392 17.0497 34.452 17.5783 34.9093 17.7732C41.4467 20.5516 45.991 26.6234 46.8136 33.6789L45.7984 32.6637C45.4409 32.3183 44.8712 32.3282 44.5258 32.6857C44.189 33.0345 44.189 33.5874 44.5258 33.9363L47.2258 36.6363C47.5768 36.9882 48.1467 36.989 48.4986 36.6379C48.4992 36.6373 48.4997 36.6367 48.5002 36.6363L51.2002 33.9363C51.5511 33.5844 51.5503 33.0147 51.1984 32.6637Z" fill="#0362D1"/>
<path d="M19.936 16.7935C19.9331 16.741 19.9253 16.6889 19.9126 16.6378C19.9126 16.6297 19.9027 16.6243 19.8991 16.6153C19.8955 16.6063 19.8991 16.6 19.8991 16.5928C19.8746 16.549 19.8462 16.5074 19.8145 16.4686C19.7854 16.4158 19.7509 16.3661 19.7119 16.3201C19.6587 16.273 19.5997 16.2328 19.5364 16.2004C19.5048 16.1735 19.471 16.1491 19.4356 16.1275L15.8356 14.4832C15.3758 14.2944 14.85 14.5141 14.6612 14.9739C14.4827 15.4087 14.6689 15.9078 15.0886 16.1194L16.9525 16.9717C9.93554 20.7271 5.55705 28.0417 5.56211 36.0004C5.56211 36.4974 5.96508 36.9004 6.46211 36.9004C6.95913 36.9004 7.36211 36.4974 7.36211 36.0004C7.35761 28.9924 11.0635 22.5058 17.1028 18.9508L16.4521 20.3107C16.2376 20.7581 16.4256 21.2947 16.8724 21.5104C16.9938 21.5697 17.127 21.6005 17.2621 21.6004C17.6077 21.6 17.9225 21.4016 18.0721 21.0901L19.8721 17.3344C19.8721 17.3254 19.8721 17.3155 19.8793 17.3065C19.9027 17.245 19.919 17.181 19.9279 17.1157C19.9433 17.0672 19.9548 17.0176 19.9621 16.9672C19.9591 16.9086 19.9504 16.8504 19.936 16.7935Z" fill="#0362D1"/>
</g>
<defs>
<clipPath id="clip0">
<rect width="54" height="54" fill="white" transform="translate(0.162109 9)"/>
</clipPath>
</defs>
</svg>
