<svg width="70" height="63" viewBox="0 0 70 63" fill="none" xmlns="http://www.w3.org/2000/svg">
<rect width="70" height="63" fill="white"/>
<circle cx="43" cy="30" r="27" fill="#F3F7FD"/>
<path d="M49.8828 45.1477C52.962 38.0099 52.3846 29.5217 48.5356 22.9626C50.6526 20.4548 47.9582 16.7894 44.879 18.3327C44.4941 17.754 43.9167 17.3682 43.3394 16.7894C44.4941 13.7028 40.645 11.1949 38.3356 13.5099C31.5997 10.0374 23.1318 10.2304 16.5884 13.7028C14.279 11.1949 10.2375 13.8957 11.5846 16.9823C10.8148 17.754 10.045 18.5256 9.27521 19.2973C8.69785 20.0689 9.85257 21.0335 10.4299 20.2619C11.0073 19.4902 11.7771 18.9115 12.5469 18.1398C14.0865 19.2973 16.2035 18.7185 16.9733 16.9823C19.6677 17.754 22.1695 18.9115 24.6714 20.2619C24.479 21.0335 24.479 21.8052 24.8639 22.3839C22.9394 24.1201 21.2073 26.0493 19.6677 28.1713C18.128 27.7855 16.5884 28.5571 16.0111 29.9075C12.9318 29.9075 9.66011 30.2933 6.58087 30.8721C6.38842 30.2933 5.81106 29.9075 5.42615 29.7146C6.00351 27.3996 6.96577 25.2776 8.12049 23.3485C8.69785 22.5768 7.54313 21.6122 6.96577 22.5768C5.6186 24.6989 4.65634 27.0138 4.07898 29.3288C0.422378 29.3288 -0.15498 34.3445 3.30917 35.3091C3.30917 42.4469 6.38842 49.1989 11.5846 53.8288C10.4299 56.9154 14.0865 59.4233 16.396 57.3012C23.3243 60.9666 31.9846 60.9666 38.9129 57.3012C41.2224 59.6162 45.0714 57.1083 43.7243 53.8288C46.4186 51.5138 48.5356 48.4272 49.8828 45.1477ZM48.9205 43.6044C46.8035 41.4823 44.6865 39.7461 42.1846 38.0099C42.5695 36.8524 42.1846 35.6949 41.4148 34.9233C43.5318 31.4508 45.0714 27.9784 46.2262 24.1201C46.6111 24.1201 46.996 24.1201 47.3809 23.9272C50.845 29.7146 51.4224 37.2382 48.9205 43.6044ZM14.6639 51.8997C14.0865 45.7264 15.0488 39.7461 17.9356 34.1516C19.6677 34.7304 21.3997 33.5729 21.7846 31.8367C26.9809 32.4154 31.7922 33.9587 36.6035 36.2737C36.4111 37.2382 36.6035 38.0099 37.1809 38.7815C31.9846 45.5335 25.0563 50.3563 17.1658 53.25C16.396 52.6713 15.6262 52.0926 14.6639 51.8997ZM37.9507 37.0453C37.9507 36.2737 38.7205 35.502 39.4903 35.502C41.4148 35.502 41.4148 38.5886 39.4903 38.5886C38.528 38.5886 37.9507 37.817 37.9507 37.0453ZM47.7658 21.0335C47.7658 21.8052 47.1884 22.5768 46.2262 22.5768C44.3016 22.5768 44.3016 19.4902 46.2262 19.4902C47.1884 19.4902 47.7658 20.2619 47.7658 21.0335ZM43.7243 19.2973C42.762 20.8406 43.1469 22.7697 44.6865 23.7343C43.5318 27.3996 41.9922 30.8721 40.0677 34.1516C39.6828 33.9587 39.2979 33.9587 38.7205 34.1516C36.6035 29.7146 33.7167 25.8563 30.0601 22.5768C30.445 21.9981 30.445 21.0335 30.2526 20.4548C32.562 19.1044 35.0639 17.9469 37.5658 17.1752C38.3356 18.9115 40.645 19.2973 42.1846 18.1398C42.9545 18.3327 43.3394 18.9115 43.7243 19.2973ZM26.0186 21.2264C26.0186 20.4548 26.7884 19.6831 27.5582 19.6831C29.4828 19.6831 29.4828 22.7697 27.5582 22.7697C26.7884 22.7697 26.0186 21.9981 26.0186 21.2264ZM40.4526 14.0886C41.2224 14.0886 41.9922 14.8603 41.9922 15.6319C41.9922 17.754 39.1054 17.754 38.9129 15.6319C38.9129 14.8603 39.6828 14.0886 40.4526 14.0886ZM14.279 17.1752C13.5092 17.1752 12.7394 16.4036 12.7394 15.6319C12.7394 13.5099 15.6262 13.5099 15.8186 15.6319C15.8186 16.5965 15.2412 17.1752 14.279 17.1752ZM17.3582 15.6319C17.3582 15.439 17.3582 15.2461 17.3582 15.0532C23.5167 11.7737 31.4073 11.5807 37.5658 14.8603C37.5658 15.0532 37.5658 15.439 37.5658 15.6319C34.8714 16.4036 32.1771 17.5611 29.8677 19.1044C28.7129 17.9469 26.7884 17.9469 25.6337 19.1044C22.9394 17.5611 20.245 16.4036 17.3582 15.6319ZM25.8262 23.7343C26.7884 24.5059 28.1356 24.5059 29.2903 23.7343C32.7545 26.8209 35.6412 30.4863 37.5658 34.7304C37.3733 34.9233 37.3733 34.9233 37.1809 35.1162C32.3695 32.6083 26.9809 31.065 21.5922 30.4863C21.3997 30.1004 21.2073 29.7146 20.8224 29.3288C22.362 27.0138 24.0941 25.2776 25.8262 23.7343ZM18.7054 29.7146C19.4752 29.7146 20.245 30.4863 20.245 31.2579C20.245 33.38 17.3582 33.38 17.1658 31.2579C17.1658 30.2933 17.9356 29.7146 18.7054 29.7146ZM2.53936 32.4154C2.53936 31.6437 3.30917 30.8721 4.07898 30.8721C6.00351 30.8721 6.00351 33.9587 4.07898 33.9587C3.11672 33.9587 2.53936 33.1871 2.53936 32.4154ZM4.65634 35.3091C4.65634 35.3091 6.96577 34.7304 6.96577 32.4154C6.96577 32.4154 12.7394 31.4508 15.6262 31.4508C15.6262 32.2225 16.0111 32.8012 16.396 33.38C13.5092 39.1674 12.3545 45.7264 12.9318 52.2855C12.5469 52.4784 12.3545 52.4784 12.162 52.8642C7.54313 48.2343 4.65634 40.9036 4.65634 35.3091ZM14.279 56.5296C13.5092 56.5296 12.7394 55.7579 12.7394 54.9863C12.7394 54.2146 13.5092 53.443 14.279 53.443C15.0488 53.443 15.8186 54.2146 15.8186 54.9863C15.8186 55.7579 15.2412 56.5296 14.279 56.5296ZM27.5582 58.4587C23.9016 58.4587 20.4375 57.4941 17.1658 55.9508C17.3582 55.565 17.3582 55.1792 17.3582 54.7934C25.6337 51.8997 32.7545 46.691 38.1431 39.7461C38.528 39.939 39.1054 40.1319 39.4903 39.939C39.8752 41.0965 40.0677 42.4469 40.2601 43.6044C40.4526 44.5689 41.7997 44.376 41.7997 43.4115C41.6073 42.0611 41.4148 40.7107 41.0299 39.3603C41.2224 39.1674 41.4148 39.1674 41.6073 38.9745C44.1092 40.7107 46.4186 42.6398 48.5356 44.7619C47.1884 47.6556 45.2639 50.3563 42.9545 52.4784C42.762 52.2855 42.3771 52.0926 42.1846 52.0926C42.3771 50.7422 42.3771 49.3918 42.3771 47.8485C42.3771 46.8839 40.8375 46.8839 40.8375 47.8485C40.8375 49.1989 40.8375 50.5493 40.645 51.8997C38.9129 52.0926 37.7582 54.0217 38.1431 55.7579C34.8714 57.6871 31.2148 58.4587 27.5582 58.4587ZM41.0299 56.7225C40.2601 56.7225 39.4903 55.9508 39.4903 55.1792C39.4903 53.0571 42.3771 53.0571 42.5695 55.1792C42.5695 55.9508 41.7997 56.7225 41.0299 56.7225Z" fill="#0362D1"/>
</svg>
