<svg width="70" height="63" viewBox="0 0 70 63" fill="none" xmlns="http://www.w3.org/2000/svg">
<rect width="70" height="63" fill="white"/>
<circle cx="43" cy="27" r="27" fill="#F3F7FD"/>
<path d="M7.33342 43.75C5.30838 43.75 3.66675 45.3916 3.66675 47.4167C3.66675 49.4417 5.30838 51.0833 7.33342 51.0833C9.35845 51.0833 11.0001 49.4417 11.0001 47.4167C11.0001 45.3916 9.35845 43.75 7.33342 43.75ZM7.33342 49.25C6.32084 49.25 5.50008 48.4292 5.50008 47.4167C5.50008 46.4041 6.32084 45.5833 7.33342 45.5833C8.34599 45.5833 9.16675 46.4041 9.16675 47.4167C9.16675 48.4292 8.34599 49.25 7.33342 49.25Z" fill="#0362D1"/>
<path d="M27.4999 43.75C25.4749 43.75 23.8333 45.3916 23.8333 47.4167C23.8333 49.4417 25.4749 51.0833 27.4999 51.0833C29.525 51.0833 31.1666 49.4417 31.1666 47.4167C31.1666 45.3916 29.525 43.75 27.4999 43.75ZM27.4999 49.25C26.4873 49.25 25.6666 48.4292 25.6666 47.4167C25.6666 46.4041 26.4873 45.5833 27.4999 45.5833C28.5125 45.5833 29.3333 46.4041 29.3333 47.4167C29.3333 48.4292 28.5125 49.25 27.4999 49.25Z" fill="#0362D1"/>
<path d="M47.6667 43.75C45.6416 43.75 44 45.3916 44 47.4167C44 49.4417 45.6416 51.0833 47.6667 51.0833C49.6917 51.0833 51.3333 49.4417 51.3333 47.4167C51.3333 45.3916 49.6917 43.75 47.6667 43.75ZM47.6667 49.25C46.6541 49.25 45.8333 48.4292 45.8333 47.4167C45.8333 46.4041 46.6541 45.5833 47.6667 45.5833C48.6792 45.5833 49.5 46.4041 49.5 47.4167C49.5 48.4292 48.6792 49.25 47.6667 49.25Z" fill="#0362D1"/>
<path d="M7.33333 52C3.28327 52 0 55.2833 0 59.3333V62.0833C0 62.5896 0.410437 63 0.916667 63H13.75C14.2562 63 14.6667 62.5896 14.6667 62.0833V59.3333C14.6667 55.2833 11.3834 52 7.33333 52ZM12.8333 61.1667H1.83333V59.3333C1.83333 56.2957 4.29573 53.8333 7.33333 53.8333C10.3709 53.8333 12.8333 56.2957 12.8333 59.3333V61.1667Z" fill="#0362D1"/>
<path d="M27.5001 52C23.45 52 20.1667 55.2833 20.1667 59.3333V62.0833C20.1667 62.5896 20.5772 63 21.0834 63H33.9167C34.423 63 34.8334 62.5896 34.8334 62.0833V59.3333C34.8334 55.2833 31.5501 52 27.5001 52ZM33.0001 61.1667H22.0001V59.3333C22.0001 56.2957 24.4625 53.8333 27.5001 53.8333C30.5377 53.8333 33.0001 56.2957 33.0001 59.3333V61.1667Z" fill="#0362D1"/>
<path d="M47.6666 52C43.6184 52.0046 40.3378 55.2851 40.3333 59.3333V62.0833C40.3333 62.5896 40.7437 63 41.2499 63H54.0832C54.5895 63 54.9999 62.5896 54.9999 62.0833V59.3333C54.9953 55.2851 51.7148 52.0046 47.6666 52ZM53.1666 61.1667H42.1666V59.3333C42.1666 56.2957 44.629 53.8333 47.6666 53.8333C50.7042 53.8333 53.1666 56.2957 53.1666 59.3333V61.1667Z" fill="#0362D1"/>
<path d="M27.4999 22.6665C25.4749 22.6665 23.8333 24.3081 23.8333 26.3332C23.8333 28.3582 25.4749 29.9998 27.4999 29.9998C29.525 29.9998 31.1666 28.3582 31.1666 26.3332C31.1666 24.3081 29.525 22.6665 27.4999 22.6665ZM27.4999 28.1665C26.4873 28.1665 25.6666 27.3457 25.6666 26.3332C25.6666 25.3206 26.4873 24.4998 27.4999 24.4998C28.5125 24.4998 29.3333 25.3206 29.3333 26.3332C29.3333 27.3457 28.5125 28.1665 27.4999 28.1665Z" fill="#0362D1"/>
<path d="M27.5001 30.917C23.45 30.917 20.1667 34.2003 20.1667 38.2503V41.0003C20.1667 41.5066 20.5772 41.917 21.0834 41.917H33.9167C34.423 41.917 34.8334 41.5066 34.8334 41.0003V38.2503C34.8334 34.2003 31.5501 30.917 27.5001 30.917ZM33.0001 40.0837H22.0001V38.2503C22.0001 35.2127 24.4625 32.7503 27.5001 32.7503C30.5377 32.7503 33.0001 35.2127 33.0001 38.2503V40.0837Z" fill="#0362D1"/>
<path d="M46.7499 8H8.24992C7.74369 8 7.33325 8.41044 7.33325 8.91667V19.9167C7.33325 20.4229 7.74369 20.8333 8.24992 20.8333H46.7499C47.2561 20.8333 47.6666 20.4229 47.6666 19.9167V8.91667C47.6666 8.41044 47.2561 8 46.7499 8ZM45.8333 19H9.16659V9.83333H45.8333V19Z" fill="#0362D1"/>
<path d="M32.943 12.2289C32.7502 11.7608 32.2144 11.5376 31.7463 11.7305C31.7383 11.7338 31.7303 11.7372 31.7222 11.7408L25.5897 14.3689L18.5552 12.6107C18.361 12.5617 18.1561 12.578 17.9722 12.6575L11.5556 15.4075C11.0875 15.6003 10.8643 16.1361 11.0571 16.6042C11.25 17.0722 11.7858 17.2954 12.2538 17.1026C12.2619 17.0993 12.2699 17.0958 12.2778 17.0923L18.4103 14.4642L25.4448 16.2224C25.639 16.2704 25.8437 16.2539 26.0278 16.1756L32.4445 13.4256C32.9126 13.2328 33.1359 12.697 32.943 12.2289Z" fill="#0362D1"/>
<path d="M40.3332 11.6665H34.8333V13.4998H40.3332V11.6665Z" fill="#0362D1"/>
<path d="M44.0001 11.6665H42.1667V13.4998H44.0001V11.6665Z" fill="#0362D1"/>
<path d="M36.6666 15.3335H34.8333V17.1668H36.6666V15.3335Z" fill="#0362D1"/>
<path d="M44 15.3335H38.5V17.1668H44V15.3335Z" fill="#0362D1"/>
</svg>
