<svg width="70" height="63" viewBox="0 0 70 63" fill="none" xmlns="http://www.w3.org/2000/svg">
<rect width="70" height="63" fill="white"/>
<circle cx="42.999" cy="28" r="27" fill="#F3F7FD"/>
<path d="M43.243 21.7252L41.6096 16.8253C41.4682 16.3971 41.0062 16.1646 40.578 16.3061C40.5397 16.3188 40.5024 16.3343 40.4663 16.3524L35.5664 18.8024C35.1627 19.004 34.9989 19.4947 35.2005 19.8984C35.4021 20.302 35.8928 20.4659 36.2965 20.2642L38.9653 18.9298C31.942 31.7742 19.1335 39.9498 5.71582 39.9498V41.5831C19.9077 41.5831 33.4316 32.858 40.6762 19.1985L41.6913 22.2414C41.8338 22.6698 42.2968 22.9016 42.7252 22.7591C43.1536 22.6166 43.3855 22.1537 43.243 21.7252Z" fill="#0362D1"/>
<path d="M48.1829 13H0.81666C0.36566 13 0 13.3657 0 13.8167V50.5664C0 51.0174 0.36566 51.383 0.81666 51.383H15.2274L12.2875 60.9428C12.1549 61.374 12.3969 61.8311 12.8281 61.9637C13.2593 62.0963 13.7163 61.8542 13.8489 61.423L15.4292 56.283H33.5704L35.1523 61.423C35.2849 61.8542 35.7419 62.0963 36.1731 61.9637C36.6043 61.8311 36.8464 61.374 36.7138 60.9428L33.7722 51.383H48.1829C48.6339 51.383 48.9996 51.0174 48.9996 50.5664V13.8167C48.9996 13.3657 48.6339 13 48.1829 13ZM15.9314 54.6497L16.9367 51.383H32.0629L33.0682 54.6497H15.9314ZM47.3663 49.7497H1.63332V14.6333H47.3663V49.7497Z" fill="#0362D1"/>
<path d="M9.79912 43.2163H6.53248C6.08148 43.2163 5.71582 43.582 5.71582 44.033V47.2996C5.71582 47.7506 6.08148 48.1163 6.53248 48.1163H9.79912C10.2501 48.1163 10.6158 47.7506 10.6158 47.2996V44.033C10.6158 43.582 10.2501 43.2163 9.79912 43.2163ZM8.98246 46.4829H7.34914V44.8496H8.98246V46.4829Z" fill="#0362D1"/>
<path d="M17.9656 41.583H14.699C14.248 41.583 13.8823 41.9487 13.8823 42.3997V47.2996C13.8823 47.7506 14.248 48.1163 14.699 48.1163H17.9656C18.4166 48.1163 18.7823 47.7506 18.7823 47.2996V42.3997C18.7823 41.9487 18.4166 41.583 17.9656 41.583ZM17.149 46.483H15.5156V43.2163H17.149V46.483Z" fill="#0362D1"/>
<path d="M26.1324 38.3164H22.8657C22.4147 38.3164 22.0491 38.6821 22.0491 39.1331V47.2997C22.0491 47.7507 22.4147 48.1163 22.8657 48.1163H26.1324C26.5834 48.1163 26.949 47.7507 26.949 47.2997V39.1331C26.949 38.6821 26.5834 38.3164 26.1324 38.3164ZM25.3157 46.483H23.6824V39.9497H25.3157V46.483Z" fill="#0362D1"/>
<path d="M34.2989 33.4165H31.0322C30.5812 33.4165 30.2156 33.7822 30.2156 34.2332V47.2997C30.2156 47.7507 30.5812 48.1164 31.0322 48.1164H34.2989C34.7499 48.1164 35.1155 47.7507 35.1155 47.2997V34.2332C35.1155 33.7822 34.7499 33.4165 34.2989 33.4165ZM33.4822 46.4831H31.8489V35.0498H33.4822V46.4831Z" fill="#0362D1"/>
<path d="M42.4656 24.4331H39.199C38.748 24.4331 38.3823 24.7988 38.3823 25.2498V47.2996C38.3823 47.7506 38.748 48.1162 39.199 48.1162H42.4656C42.9166 48.1162 43.2823 47.7506 43.2823 47.2996V25.2498C43.2823 24.7988 42.9166 24.4331 42.4656 24.4331ZM41.649 46.4829H40.0156V26.0664H41.649V46.4829Z" fill="#0362D1"/>
</svg>
