<svg width="70" height="63" viewBox="0 0 70 63" fill="none" xmlns="http://www.w3.org/2000/svg">
<rect width="70" height="63" fill="white"/>
<circle cx="43" cy="28" r="27" fill="#F3F7FD"/>
<path d="M21.2612 15.4102C11.4066 15.4102 3.41797 23.3988 3.41797 33.2534C3.41797 43.108 11.4066 51.0966 21.2612 51.0966C31.1158 51.0966 39.1044 43.108 39.1044 33.2534C39.0937 23.4033 31.1113 15.4209 21.2612 15.4102ZM21.2612 17.1095C26.5097 17.1137 31.4279 19.6716 34.4448 23.9664L32.3206 26.0906C31.8037 25.7778 31.2119 25.6104 30.6077 25.6063C28.7306 25.6063 27.2089 27.128 27.2089 29.005C27.2119 29.6099 27.3784 30.2026 27.6907 30.7205L22.127 36.2842C21.0735 35.6418 19.7495 35.6418 18.696 36.2842L14.8317 32.4199C15.1441 31.902 15.3105 31.3092 15.3135 30.7044C15.3158 28.831 13.7991 27.3105 11.9258 27.3082C10.3765 27.3063 9.02287 28.3543 8.63669 29.8547H5.48439C7.09314 22.4256 13.66 17.1207 21.2612 17.1095ZM32.307 29.005C32.307 29.9436 31.5462 30.7044 30.6077 30.7044C29.6691 30.7044 28.9083 29.9436 28.9083 29.005C28.9083 28.0664 29.6691 27.3056 30.6077 27.3056C31.5462 27.3056 32.307 28.0664 32.307 29.005ZM22.1109 39.2011C22.1109 40.1397 21.3501 40.9005 20.4115 40.9005C19.473 40.9005 18.7122 40.1397 18.7122 39.2011C18.7122 38.2626 19.473 37.5018 20.4115 37.5018C21.3501 37.5018 22.1109 38.2626 22.1109 39.2011ZM13.6141 30.7044C13.6141 31.6429 12.8533 32.4037 11.9147 32.4037C10.9762 32.4037 10.2154 31.6429 10.2154 30.7044C10.2154 29.7658 10.9762 29.005 11.9147 29.005C12.8533 29.005 13.6141 29.7658 13.6141 30.7044ZM29.1052 47.3693C26.7057 48.7016 24.0059 49.3996 21.2612 49.3972C12.3513 49.4032 5.12338 42.1853 5.11732 33.2754C5.1169 32.7004 5.14728 32.1257 5.20824 31.5539H8.63669C9.02298 33.0499 10.3697 34.0971 11.9147 34.103C12.5196 34.1 13.1124 33.9336 13.6302 33.6212L17.4946 37.4855C17.1822 38.0034 17.0158 38.5962 17.0128 39.201C17.0128 41.0781 18.5345 42.5997 20.4115 42.5997C22.2886 42.5997 23.8102 41.0781 23.8102 39.201C23.8073 38.5962 23.6408 38.0034 23.3285 37.4855L28.8922 31.9218C29.41 32.2342 30.0028 32.4006 30.6077 32.4036C32.4847 32.4036 34.0064 30.8819 34.0064 29.0049C34.0034 28.4 33.837 27.8073 33.5246 27.2894L35.3769 25.4379C39.7012 33.2261 36.8933 43.0451 29.1052 47.3693Z" fill="#0362D1"/>
<path d="M42.5032 20.5083C44.0482 20.5025 45.395 19.4553 45.7812 17.9593H51V16.2599H45.7812C45.395 14.7638 44.0482 13.7167 42.5032 13.7109C40.6261 13.7109 39.1045 15.2325 39.1045 17.1096C39.1075 17.7144 39.2739 18.3072 39.5862 18.8251L38.0934 20.318C30.9502 11.0118 17.6154 9.25824 8.30918 16.4014C-0.997023 23.5445 -2.75055 36.8795 4.39259 46.1857C11.1352 54.97 23.4949 57.1008 32.7897 51.0814L35.354 53.6457L36.5554 54.8472L43.3953 61.6871C45.135 63.4267 47.9553 63.4267 49.6949 61.6871C51.4345 59.9475 51.4345 57.1272 49.6949 55.3876L42.855 48.5477L41.6535 47.3462L39.0892 44.7819C43.6412 37.7704 43.6412 28.7367 39.0892 21.725L40.7885 20.0257C41.3061 20.3381 41.8986 20.5049 42.5032 20.5083ZM42.5032 15.4102C43.4418 15.4102 44.2025 16.171 44.2025 17.1096C44.2025 18.0482 43.4418 18.8089 42.5032 18.8089C41.5646 18.8089 40.8038 18.0482 40.8038 17.1096C40.8038 16.171 41.5647 15.4102 42.5032 15.4102ZM48.4934 56.589C49.5816 57.6528 49.6015 59.3974 48.5377 60.4856C47.4739 61.5739 45.7293 61.5937 44.6411 60.5299C44.6261 60.5154 44.6115 60.5006 44.5968 60.4856L37.7569 53.6457L41.6535 49.7491L48.4934 56.589ZM40.4521 48.5477L36.5554 52.4443L34.2035 50.0924C34.3233 50.0006 34.4355 49.8995 34.5536 49.8052C34.6717 49.7109 34.8085 49.5979 34.9351 49.4917C35.1212 49.3353 35.3047 49.1773 35.4848 49.015C35.5775 48.93 35.6658 48.8451 35.7567 48.7601C36.1051 48.4338 36.4424 48.0965 36.7687 47.7481C36.8537 47.6572 36.9386 47.5688 37.0236 47.4762C37.1859 47.2961 37.3439 47.1126 37.5003 46.9265C37.6068 46.8007 37.7113 46.6736 37.8138 46.545C37.9073 46.4277 38.0084 46.3156 38.1002 46.1958L40.4521 48.5477ZM37.157 44.6009C36.8894 44.9748 36.6132 45.341 36.3218 45.6936C36.2368 45.7964 36.1459 45.8958 36.0584 45.9969C35.7984 46.2994 35.5299 46.5929 35.2529 46.8772C35.1322 47.0018 35.0096 47.1245 34.885 47.2451C34.6017 47.5221 34.3084 47.7906 34.0047 48.0506C33.9036 48.1356 33.8042 48.2282 33.7014 48.314C33.3488 48.6054 32.9825 48.8816 32.6087 49.1492C23.8128 55.4331 11.5882 53.3968 5.30429 44.6009C-0.979605 35.805 1.05675 23.5804 9.85262 17.2965C18.6485 11.0126 30.8731 13.0489 37.157 21.8448C42.0194 28.651 42.0194 37.7948 37.157 44.6009Z" fill="#0362D1"/>
</svg>
