<svg width="70" height="63" viewBox="0 0 70 63" fill="none" xmlns="http://www.w3.org/2000/svg">
<rect width="70" height="63" fill="white"/>
<circle cx="43" cy="27" r="27" fill="#F3F7FD"/>
<path d="M53.1 43.2H36.9V27.9C36.9 27.403 36.497 27 36 27H31.5V26.1C31.5 25.8613 31.405 25.6324 31.2363 25.4637L29.7 23.9274V21.9726L30.186 21.4866C34.1704 20.2207 36.8829 16.5286 36.9 12.348V11.7C36.9 11.203 36.497 10.8 36 10.8H34.1712C34.1802 10.6029 34.2 10.4076 34.2 10.2087V9.9C34.2 9.40297 33.797 9 33.3 9H20.7C20.203 9 19.8 9.40297 19.8 9.9V10.2087C19.8 10.4076 19.8198 10.6029 19.8288 10.8H18C17.503 10.8 17.1 11.203 17.1 11.7V12.348C17.1171 16.5286 19.8296 20.2207 23.814 21.4866L24.3 21.9726V23.9274L22.7637 25.4637C22.5949 25.6324 22.5 25.8613 22.5 26.1V27H18C17.503 27 17.1 27.403 17.1 27.9V43.2H0.9C0.402975 43.2 0 43.603 0 44.1V62.1C0 62.597 0.402975 63 0.9 63H53.1C53.597 63 54 62.597 54 62.1V44.1C54 43.603 53.597 43.2 53.1 43.2ZM17.1 61.2H1.8V45H17.1V61.2ZM33.9768 12.6H35.1C34.9929 15.5316 33.256 18.1574 30.6 19.4031V19.2456C32.3467 17.405 33.5199 15.0959 33.9768 12.6ZM23.4 19.4031C20.744 18.1574 19.0071 15.5316 18.9 12.6H20.0196C20.4775 15.0964 21.6521 17.4054 23.4 19.2456V19.4031ZM21.6153 10.8H32.3847C32.2532 13.4885 31.1661 16.0417 29.3193 18H24.6807C22.8339 16.0418 21.7468 13.4885 21.6153 10.8ZM25.8363 20.9637L25.2 20.3274V19.8H28.8V20.3274L28.1637 20.9637C27.9949 21.1324 27.9 21.3613 27.9 21.6V23.4H26.1V21.6C26.1 21.3613 26.005 21.1324 25.8363 20.9637ZM24.3 26.4726L25.5726 25.2H28.4274L29.7 26.4726V27H24.3V26.4726ZM35.1 61.2H18.9V44.1V28.8H35.1V61.2ZM52.2 61.2H36.9V45H52.2V61.2Z" fill="#0362D1"/>
</svg>
