<svg width="71" height="63" viewBox="0 0 71 63" fill="none" xmlns="http://www.w3.org/2000/svg">
<rect width="70" height="63" transform="translate(0.162109)" fill="white"/>
<circle cx="43.1621" cy="29" r="27" fill="#F3F7FD"/>
<path d="M49.8918 32.9256C49.8918 27.0233 47.081 21.5581 42.108 18.0605C41.6756 17.8419 41.0269 17.8419 40.8107 18.2791C40.5945 18.7163 40.5945 19.3721 41.0269 19.5907C41.6756 20.0279 42.108 20.4651 42.7566 20.9023L40.3783 23.307C38.4323 21.5581 35.8377 20.4651 33.2431 20.2465V16.9674C34.9729 16.9674 36.4864 17.4047 37.9999 18.0605C38.4323 18.2791 39.081 18.0605 39.2972 17.6233C39.5134 17.186 39.2972 16.5302 38.8647 16.3116C36.9188 15.4372 34.7566 15 32.3783 15C22.6485 15 14.6485 23.0884 14.6485 32.9256C14.6485 34.893 15.081 37.0791 15.7296 38.8279C15.9458 39.2651 16.162 39.4837 16.5945 39.4837H16.8107C17.2431 39.2651 17.4593 38.8279 17.4593 38.1721C17.0269 36.8605 16.5945 35.3302 16.5945 33.8H19.8377C20.0539 36.6419 21.135 39.0465 22.8647 41.014L20.2702 43.4186C19.6215 42.7628 19.1891 42.107 18.7566 41.2326C18.5404 40.7953 17.8918 40.5767 17.4593 41.014C17.0269 41.2326 16.8107 41.8884 17.2431 42.3256C20.4864 47.5721 26.108 50.6326 32.162 50.6326C41.8918 50.6326 49.8918 42.7628 49.8918 32.9256ZM33.0269 45.386C35.8377 45.1674 38.2161 44.0744 40.162 42.3256L42.5404 44.7302C39.9458 47.1349 36.7026 48.4465 33.0269 48.6651V45.386ZM41.6756 41.014C43.4053 39.0465 44.4864 36.4233 44.7026 33.8H47.9458C47.7296 37.5163 46.2161 40.7953 44.0539 43.4186L41.6756 41.014ZM44.0539 22.214C46.4323 24.8372 47.7296 28.3349 47.9458 31.8326H44.7026C44.4864 28.9907 43.4053 26.586 41.6756 24.6186L44.0539 22.214ZM19.8377 31.8326H16.5945C16.8107 28.1163 18.3242 24.8372 20.4864 22.214L22.8647 24.6186C21.135 26.586 19.8377 29.2093 19.8377 31.8326ZM23.9458 23.307L21.7837 20.9023C24.3783 18.4977 27.6215 17.186 31.2972 16.9674V20.2465C28.4864 20.4651 26.108 21.5581 23.9458 23.307ZM32.162 22.214C37.9999 22.214 42.7566 27.0233 42.7566 32.9256C42.7566 38.8279 37.9999 43.6372 32.162 43.6372C26.3242 43.6372 21.5674 38.8279 21.5674 32.9256C21.5674 27.0233 26.3242 22.214 32.162 22.214ZM23.9458 42.3256C25.8918 44.0744 28.4864 45.1674 31.081 45.386V48.6651C27.4053 48.4465 24.162 47.1349 21.5674 44.7302L23.9458 42.3256Z" fill="#0362D1"/>
<path d="M31.2972 30.084H31.9459V36.6422C31.9459 37.0794 32.3783 37.5166 32.8108 37.5166C33.2432 37.5166 33.6756 37.0794 33.6756 36.6422V29.2096C33.6756 28.7724 33.2432 28.3352 32.8108 28.3352H31.2972C30.8648 28.1166 30.4324 28.5538 30.4324 29.2096C30.4324 29.6468 30.8648 30.084 31.2972 30.084Z" fill="#0362D1"/>
<path d="M29.3513 55.0049C18.1081 55.0049 9.02703 45.8235 9.02703 34.4561C9.02703 31.3956 9.67567 28.5538 10.973 25.7119V25.4933C11.6216 24.1817 12.2703 21.9956 11.6216 20.0282C10.973 17.8422 8.81081 16.3119 7.51351 15.6561C7.2973 15.4375 6.86486 15.4375 6.43243 15.4375C6 15.6561 5.78378 15.8747 5.56757 16.3119C4.91892 17.4049 3.83784 20.0282 4.7027 22.2142C5.35135 24.4003 7.51351 25.9305 8.59459 26.5863C8.16216 27.6794 7.94595 28.5538 7.72973 29.6468C7.51351 29.4282 7.51351 29.2096 7.2973 29.2096C5.56757 27.4608 3.18919 27.0235 1.67568 27.0235C1.24324 27.0235 0.810811 27.2422 0.594595 27.4608C0.378378 27.4608 0.162162 27.898 0.162162 28.3352C0.162162 29.6468 0.162162 32.2701 1.89189 34.2375C3.40541 35.9863 6 36.4235 7.2973 36.4235C7.2973 37.5166 7.51351 38.391 7.72973 39.484C7.51351 39.484 7.2973 39.2654 7.08108 39.2654C4.91892 38.391 2.32432 39.0468 1.02703 39.7026C0.594595 39.9212 0.378378 40.1398 0.162162 40.577C-0.054054 41.0142 -0.054054 41.4515 0.162162 41.6701C0.594595 42.9817 1.89189 45.1677 4.27027 46.2608C5.13513 46.4794 5.78378 46.698 6.64865 46.698C7.94595 46.698 9.24324 46.2608 10.1081 46.0422C10.5405 46.9166 11.1892 47.791 11.8378 48.6654C11.6216 48.6654 11.4054 48.6654 11.1892 48.6654C8.81081 48.884 6.86486 50.6329 6 51.5073C5.78378 51.7259 5.56757 52.1631 5.56757 52.6003C5.56757 53.0375 5.78378 53.4747 6 53.6933C7.08108 54.5677 9.02703 56.098 11.1892 56.098H11.4054C13.7838 55.8794 15.7297 54.3491 16.5946 53.2561C17.4595 53.9119 18.3243 54.3491 19.1892 54.7863C18.973 54.7863 18.7568 55.0049 18.5405 55.0049C16.3784 56.098 15.2973 58.5026 15.0811 59.8142C14.8649 60.2515 15.0811 60.6887 15.2973 60.9073C15.5135 61.3445 15.7297 61.5631 16.1622 61.5631C16.8108 61.7817 17.8919 62.0003 19.1892 62.0003C20.2703 62.0003 21.3513 61.7817 22.2162 61.3445C24.3784 60.2515 25.2432 57.8468 25.6757 56.5352C26.7568 56.7538 28.0541 56.7538 29.1351 56.7538C29.5676 56.7538 30 56.3166 30 55.8794C30.2162 55.2235 30 55.0049 29.3513 55.0049ZM5.13513 44.2933C3.62162 43.6375 2.75676 42.1073 2.32432 41.0142C3.18919 40.577 5.13514 40.1398 6.64865 40.7956C8.16216 41.4515 9.02703 42.9817 9.45946 44.0747C8.37838 44.5119 6.64865 44.9491 5.13513 44.2933ZM21.5676 59.5956C20.0541 60.4701 18.3243 60.0328 17.2432 59.8142C17.6757 58.9398 18.3243 57.191 19.8378 56.3166C21.3514 55.4422 23.0811 55.8794 24.1622 56.098C23.7297 57.191 22.8649 58.9398 21.5676 59.5956ZM6.43243 21.777C6 20.2468 6.64865 18.498 7.08108 17.4049C7.94595 17.8422 9.45946 18.9352 9.89189 20.684C10.3243 22.4328 9.67567 23.9631 9.24324 24.8375C8.37838 24.4003 6.86486 23.3073 6.43243 21.777ZM3.18919 32.9259C2.10811 31.6142 2.10811 29.8654 2.10811 28.7724C3.18919 28.7724 4.91892 29.2096 6 30.3026C7.08108 31.6142 7.2973 33.3631 7.2973 34.4561C6.21622 34.4561 4.27027 34.0189 3.18919 32.9259ZM11.6216 53.6933C10.1081 53.6933 8.59459 52.8189 7.72973 51.9445C8.37838 51.2887 9.89189 49.977 11.4054 49.977C13.1351 49.977 14.6486 51.0701 15.2973 51.7259C14.6486 52.6003 13.1351 53.6933 11.6216 53.6933Z" fill="#0362D1"/>
<path d="M63.0812 39.4833C61.7839 39.046 59.4055 38.1716 57.0271 39.046C56.8109 39.046 56.5947 39.2646 56.3785 39.2646C56.5947 38.3902 56.8109 37.2972 56.8109 36.2042C58.3244 36.2042 60.7028 35.767 62.2163 34.0181C63.946 32.2693 63.946 29.646 63.946 28.1158C63.946 27.6786 63.7298 27.2414 63.5136 27.0228C63.2974 26.8042 62.8649 26.5856 62.4325 26.5856C61.1352 26.5856 58.5406 27.0228 56.8109 28.7716C56.5947 28.9902 56.5947 28.9902 56.3785 29.2088C56.1622 28.1158 55.946 27.2414 55.5136 26.367C56.8109 25.7112 58.7568 24.1809 59.4055 21.9949C60.0541 19.5902 59.1893 17.1856 58.5406 16.0926C58.3244 15.6553 58.1082 15.4367 57.6758 15.4367C57.2433 15.2181 56.8109 15.4367 56.5947 15.6553C55.2974 16.3112 53.1352 17.8414 52.4866 20.0274C51.8379 21.9949 52.4866 24.1809 53.1352 25.4926V25.7112C54.4325 28.3344 55.0812 31.3949 55.0812 34.4553C55.0812 45.8228 46.0001 55.0042 34.7568 55.0042C34.3244 55.0042 33.892 55.4414 33.892 55.8786C33.892 56.3158 34.3244 56.753 34.7568 56.753C35.8379 56.753 37.1352 56.753 38.2163 56.5344C38.6487 57.846 39.7298 60.2507 41.6758 61.3437C42.7568 61.7809 43.8379 61.9995 44.7028 61.9995C45.7839 61.9995 46.8649 61.7809 47.7298 61.5623C48.1622 61.3437 48.3785 61.1251 48.5947 60.9065C48.8109 60.4693 48.8109 60.0321 48.8109 59.8135C48.3785 58.5019 47.5136 56.0972 45.3514 55.0042C45.1352 55.0042 44.919 54.7856 44.7028 54.7856C45.5676 54.3484 46.4325 53.9112 47.2974 53.2553C48.1622 54.3484 50.1082 55.8786 52.4866 56.0972H52.7028C55.0812 56.0972 57.0271 54.567 57.892 53.6926C58.1082 53.474 58.3244 53.0367 58.3244 52.5995C58.3244 52.1623 58.1082 51.7251 57.892 51.5065C57.0271 50.4135 55.0812 48.6646 52.7028 48.6646C52.4866 48.6646 52.2703 48.6646 52.0541 48.6646C52.7028 47.7902 53.3514 46.9158 53.7839 46.0414C54.6487 46.4786 55.946 46.6972 57.2433 46.6972C58.1082 46.6972 58.7568 46.4786 59.6217 46.26C61.7839 45.3856 63.0812 42.9809 63.7298 41.6693C63.946 41.2321 63.946 40.7949 63.7298 40.5763C63.7298 39.9205 63.5136 39.7019 63.0812 39.4833ZM47.0812 59.8135C46.0001 60.0321 44.2703 60.4693 42.7568 59.5949C41.2433 58.7205 40.5947 57.1902 40.1622 56.0972C41.2433 55.8786 42.973 55.4414 44.4866 56.3158C46.0001 57.1902 46.6487 58.9391 47.0812 59.8135ZM58.3244 30.3019C59.4055 28.9902 61.1352 28.7716 62.2163 28.7716C62.2163 29.8646 62.0001 31.6135 60.919 32.9251C59.8379 34.2367 58.1082 34.4553 57.0271 34.4553C57.0271 33.3623 57.2433 31.6135 58.3244 30.3019ZM54.4325 20.6833C54.8649 19.153 56.3785 18.06 57.2433 17.4042C57.6757 18.2786 58.3244 20.0274 57.892 21.5577C57.4595 23.0879 55.946 24.1809 55.0812 24.8367C54.6487 23.9623 54.0001 22.2135 54.4325 20.6833ZM52.919 50.1949C54.4325 50.1949 55.946 51.5065 56.5947 52.1623C55.7298 52.8181 54.2163 53.9112 52.7028 53.9112C51.1893 53.9112 49.6758 52.5995 49.0271 51.9437C49.6758 51.0693 51.1893 49.9763 52.919 50.1949ZM59.1893 44.2926C57.6757 44.9484 55.946 44.5112 54.8649 44.074C55.2974 43.1995 56.1622 41.4507 57.6758 40.7949C59.1893 40.1391 60.919 40.5763 62.0001 41.0135C61.5676 42.1065 60.7028 43.6367 59.1893 44.2926Z" fill="#0362D1"/>
</svg>
