<svg width="70" height="63" viewBox="0 0 70 63" fill="none" xmlns="http://www.w3.org/2000/svg">
<rect width="70" height="63" fill="white"/>
<circle cx="43" cy="30" r="27" fill="#F3F7FD"/>
<path d="M45.9524 41.6279C45.27 41.6279 44.815 42.076 44.815 42.7481V56.6389C44.815 57.311 44.36 57.7591 43.6776 57.7591H4.32211C3.63965 57.7591 3.18467 57.311 3.18467 56.6389V42.7481C3.18467 42.076 2.7297 41.6279 2.04723 41.6279C1.36477 41.6279 0.90979 42.076 0.90979 42.7481V56.6389C0.90979 58.4312 2.27472 59.7755 4.09462 59.7755H43.4501C45.27 59.7755 46.6349 58.4312 46.6349 56.6389V42.7481C47.0899 42.076 46.6349 41.6279 45.9524 41.6279Z" fill="#0362D1"/>
<path d="M44.8152 26.6177H3.18483C1.36493 26.6177 0 27.9619 0 29.7543V36.6996C0 38.268 1.13744 39.3882 2.50237 39.8363L19.564 43.645V47.0057C19.564 47.6778 20.019 48.1259 20.7014 48.1259H27.2986C27.981 48.1259 28.436 47.6778 28.436 47.0057V43.645L45.4976 39.8363C46.8626 39.6122 48 38.268 48 36.6996V29.7543C48 27.9619 46.6351 26.6177 44.8152 26.6177ZM26.1611 45.8854H21.8389V41.6286H26.1611V45.8854ZM45.9526 36.6996C45.9526 37.1477 45.7251 37.5958 45.0426 37.8199L28.436 41.4046V40.5084C28.436 39.8363 27.981 39.3882 27.2986 39.3882H20.7014C20.019 39.3882 19.564 39.8363 19.564 40.5084V41.4046L2.95735 37.8199C2.50237 37.5958 2.27488 37.1477 2.27488 36.6996V29.7543C2.27488 29.0822 2.72986 28.6341 3.41232 28.6341H45.0426C45.7251 28.6341 46.1801 29.0822 46.1801 29.7543V36.6996H45.9526Z" fill="#0362D1"/>
<path d="M29.5733 19H18.6539C16.834 19 15.2416 20.3443 15.2416 22.1366V23.2568C15.2416 23.929 15.6966 24.377 16.379 24.377C17.0615 24.377 17.5165 23.929 17.5165 23.2568V22.1366C17.5165 21.6885 17.9714 21.2404 18.6539 21.2404H29.5733C30.2558 21.2404 30.7108 21.6885 30.7108 22.3607V23.4809C30.7108 24.153 31.1657 24.6011 31.8482 24.6011C32.5307 24.6011 32.9856 24.153 32.9856 23.4809V22.1366C32.7582 20.3443 31.3932 19 29.5733 19Z" fill="#0362D1"/>
</svg>
