<svg width="70" height="63" viewBox="0 0 70 63" fill="none" xmlns="http://www.w3.org/2000/svg">
<rect width="70" height="63" fill="white"/>
<circle cx="43" cy="29" r="27" fill="#F3F7FD"/>
<path d="M23.5944 15C10.5703 15 0 25.5703 0 38.5944C0 51.6185 10.5703 62.1888 23.5944 62.1888C28.8795 62.1888 33.7871 60.49 37.9398 57.2811C39.6386 55.7711 39.6386 53.6948 38.8835 52.3735C38.3173 51.4297 37.5622 50.8635 36.8072 50.4859L37.1847 50.1084C37.751 49.5422 37.9398 48.5984 37.9398 47.6546C37.751 46.7108 37.3735 45.9558 36.4297 45.5783L31.3333 42.5582C30.2008 41.8032 28.502 42.1807 27.5582 43.1245L26.4257 44.257C26.2369 44.4458 25.8594 44.6345 25.6707 44.6345C25.2932 44.6345 25.1044 44.4458 24.9157 44.257L18.6867 34.8193C18.498 34.6305 18.498 34.253 18.498 34.0643C18.498 33.8755 18.6867 33.498 19.0643 33.498L20.9518 32.743C22.2731 32.1767 22.8394 30.6667 22.6506 29.3454L21.3293 23.494C21.1406 22.5502 20.5743 21.9839 19.8193 21.6064C19.0643 21.2289 18.1205 21.2289 17.3655 21.6064L15.2892 21.9839C12.8353 23.1165 11.1365 25.1928 10.5703 27.6466L10.004 28.7791C9.43775 30.8554 9.62651 32.9317 10.5703 34.8193L12.0803 38.0281C14.1566 42.5582 17.1767 46.7108 20.7631 50.2972L21.8956 51.4297C23.5944 53.1285 26.0482 54.261 28.502 54.261C28.6908 54.261 28.6908 54.261 28.8795 54.261C30.9558 54.261 33.0321 53.506 34.7309 52.1847C34.7309 52.1847 34.7309 52.1847 34.9197 52.1847C36.241 51.8072 36.996 52.751 36.996 53.1285C37.3735 53.8835 37.3735 55.0161 36.6185 55.5823C32.8434 58.4137 28.3133 60.1124 23.4056 60.1124C11.7028 60.1124 1.88755 50.4859 1.88755 38.5944C1.88755 26.7028 11.7028 16.8876 23.5944 16.8876C35.4859 16.8876 45.1124 26.5141 45.1124 38.4056C45.1124 38.9719 45.49 39.3494 46.0562 39.3494C46.6225 39.3494 47 38.9719 47 38.4056C47 25.5703 36.4297 15 23.5944 15ZM35.6747 48.5984L34.7309 49.5422C33.2209 51.241 30.9558 52.1847 28.502 52.1847C26.4257 52.1847 24.5382 51.241 23.2169 49.9197L22.0843 48.7871C18.6867 45.3896 15.8554 41.4257 13.7791 37.0843L12.4578 33.8755C11.7028 32.5542 11.5141 30.8554 12.0803 29.3454L12.2691 28.2129C12.8353 26.3253 14.1566 24.6265 16.0442 23.6827L17.743 22.9277C17.9317 22.9277 17.9317 22.9277 18.1205 22.9277C18.3092 22.9277 18.498 22.9277 18.498 23.1165C18.6867 23.3052 18.8755 23.494 19.0643 23.6827L20.3855 29.5341C20.5743 29.9116 20.1968 30.4779 19.8193 30.6667L17.9317 31.4217C17.1767 31.7992 16.6104 32.5542 16.4217 33.3092C16.2329 34.0643 16.2329 35.008 16.7992 35.7631L23.0281 45.2008C23.5944 45.9558 24.3494 46.5221 25.2932 46.5221C26.2369 46.5221 27.1807 46.1446 27.747 45.5783L28.8795 44.257C29.257 43.8795 29.6345 43.8795 30.2008 44.0683L35.2972 47.0884C35.4859 47.2771 35.6747 47.4659 35.8635 47.8434C35.8635 48.0321 35.8635 48.4096 35.6747 48.5984Z" fill="#0362D1"/>
</svg>
