<svg width="70" height="63" viewBox="0 0 70 63" fill="none" xmlns="http://www.w3.org/2000/svg">
<g clip-path="url(#clip0)">
<rect width="70" height="63" fill="white"/>
<circle cx="43" cy="27" r="27" fill="#F3F7FD"/>
<path d="M52.6334 17.6665H31.8332C31.3546 17.6665 30.9666 18.0546 30.9666 18.5332V26.3332C30.9669 26.8119 31.3553 27.1996 31.8339 27.1993C31.9267 27.1992 32.019 27.1842 32.1071 27.1549L33.1965 26.7917C34.3793 26.4045 35.6519 27.0496 36.039 28.2323C36.4261 29.4151 35.7812 30.6877 34.5984 31.0748C34.1429 31.2239 33.6518 31.2239 33.1964 31.0748L32.107 30.7117C31.6529 30.5605 31.1621 30.8059 31.0109 31.2601C30.9815 31.3482 30.9666 31.4405 30.9665 31.5333V38.4667H24.0331C23.5544 38.467 23.1667 38.8554 23.167 39.334C23.1671 39.4269 23.1821 39.5192 23.2115 39.6072L23.5746 40.6966C23.9618 41.8794 23.3168 43.152 22.134 43.5391C20.9512 43.9263 19.6786 43.2813 19.2915 42.0985C19.1424 41.643 19.1424 41.152 19.2915 40.6965L19.6546 39.6071C19.8059 39.153 19.5604 38.6622 19.1062 38.511C19.0182 38.4816 18.9259 38.4667 18.833 38.4666H11.0331C10.5544 38.4666 10.1664 38.8546 10.1664 39.3333V60.1334C10.1664 60.6121 10.5544 61.0001 11.0331 61.0001H52.6334C53.112 61.0001 53.5001 60.6121 53.5001 60.1334V18.5332C53.5001 18.0546 53.112 17.6665 52.6334 17.6665ZM31.011 52.0603C30.9816 52.1483 30.9667 52.2406 30.9666 52.3335V59.2669H11.8997V40.2H17.631C16.9688 42.2999 18.1343 44.539 20.2341 45.2012C22.3339 45.8634 24.5731 44.698 25.2352 42.5981C25.4814 41.8177 25.4814 40.9804 25.2352 40.1999H30.9666V47.1333C30.9669 47.6119 31.3553 47.9997 31.8339 47.9993C31.9267 47.9992 32.019 47.9843 32.1071 47.9549L33.1965 47.5918C34.3793 47.2047 35.6519 47.8496 36.039 49.0324C36.4261 50.2152 35.7812 51.4878 34.5984 51.8749C34.1429 52.024 33.6518 52.024 33.1964 51.8749L32.107 51.5118C31.653 51.3606 31.1622 51.6061 31.011 52.0603ZM51.7668 59.2669H32.6999V53.5356C34.7998 54.1978 37.0389 53.0323 37.7011 50.9325C38.3633 48.8327 37.1978 46.5935 35.098 45.9314C34.3176 45.6852 33.4802 45.6852 32.6998 45.9314V40.2H39.6332C40.1118 40.1997 40.4996 39.8113 40.4992 39.3327C40.4991 39.2399 40.4842 39.1476 40.4548 39.0595L40.0917 37.9701C39.7046 36.7873 40.3495 35.5147 41.5323 35.1276C42.7151 34.7405 43.9877 35.3854 44.3748 36.5682C44.5238 37.0237 44.5238 37.5148 44.3748 37.9702L44.0116 39.0596C43.8604 39.5137 44.1059 40.0045 44.56 40.1557C44.6481 40.1851 44.7404 40.2 44.8332 40.2001H51.7666V59.2669H51.7668ZM51.7668 38.4667H46.0354C46.6977 36.3668 45.5322 34.1277 43.4324 33.4655C41.3325 32.8033 39.0934 33.9688 38.4312 36.0686C38.1851 36.849 38.1851 37.6864 38.4312 38.4668H32.6999V32.7355C33.9036 33.1256 35.2214 32.9151 36.2437 32.1695C38.0362 30.891 38.4529 28.4013 37.1743 26.6089C36.1647 25.1934 34.3541 24.5955 32.6999 25.1313V19.3999H51.7668V38.4667V38.4667Z" fill="#0362D1"/>
<path d="M26.4315 16.4647C25.651 16.2185 24.8137 16.2185 24.0333 16.4647V9.86667C24.0333 9.38805 23.6452 9 23.1666 9H2.36643C1.88781 9 1.49976 9.38805 1.49976 9.86667V30.6669C1.49976 31.1455 1.88781 31.5335 2.36643 31.5335H8.96442C8.30217 33.6334 9.46763 35.8725 11.5675 36.5347C13.6673 37.1968 15.9065 36.0315 16.5686 33.9316C16.8148 33.1512 16.8148 32.3139 16.5686 31.5334H23.1666C23.6452 31.5334 24.0333 31.1454 24.0333 30.6667V24.0688C26.1331 24.731 28.3723 23.5655 29.0344 21.4657C29.6967 19.366 28.5313 17.1269 26.4315 16.4647ZM25.9318 22.4083C25.4764 22.5574 24.9853 22.5574 24.5299 22.4083L23.4405 22.0452C22.9863 21.8939 22.4956 22.1394 22.3444 22.5936C22.315 22.6816 22.3 22.7739 22.2999 22.8668V29.8002H15.3665C14.8879 29.8005 14.5002 30.1889 14.5005 30.6675C14.5006 30.7604 14.5156 30.8527 14.5449 30.9407L14.9081 32.0301C15.2953 33.2129 14.6502 34.4855 13.4674 34.8726C12.2847 35.2597 11.012 34.6148 10.625 33.432C10.4759 32.9765 10.4759 32.4855 10.625 32.03L10.9881 30.9406C11.1393 30.4865 10.8939 29.9957 10.4397 29.8445C10.3516 29.8151 10.2593 29.8002 10.1665 29.8001H3.2331V10.7333H22.2999V17.6667C22.3003 18.1454 22.6886 18.5331 23.1673 18.5328C23.2601 18.5327 23.3524 18.5177 23.4405 18.4884L24.5299 18.1252C25.7127 17.7381 26.9853 18.383 27.3724 19.5658C27.7596 20.7485 27.1145 22.0212 25.9318 22.4083Z" fill="#0362D1"/>
</g>
<defs>
<clipPath id="clip0">
<rect width="70" height="63" fill="white"/>
</clipPath>
</defs>
</svg>
